<svg viewBox="0 0 382 131" preserveAspectRatio="xMinYMin slice" fill="none" xmlns="http://www.w3.org/2000/svg"><path fill="#fff" d="M0 0h382v131H0z"/><mask id="mask86_75655_20" style="mask-type:alpha" maskUnits="userSpaceOnUse" x="0" y="0" width="382" height="131"><path fill="#C4C4C4" d="M0 0h382v131H0z"/></mask><g clip-path="url(#mask86_75655_20)" mask="url(#mask86_75655_20)"><path d="M381.886-21H.116v151.942h381.77V-21Z" fill="#F4FAFB"/><path d="M285.238 14.578c2.281 0 4.13-1.859 4.13-4.152s-1.849-4.151-4.13-4.151c-2.281 0-4.13 1.858-4.13 4.151 0 2.293 1.849 4.152 4.13 4.152Zm21.738-1.038c2.281 0 4.13-1.859 4.13-4.152 0-2.292-1.849-4.151-4.13-4.151-2.28 0-4.129 1.859-4.129 4.151 0 2.293 1.849 4.152 4.129 4.152Z" fill="#8BB956"/><path d="M293.039 14.348c3.706 0 6.711-3.021 6.711-6.747S296.745.854 293.039.854c-3.706 0-6.711 3.02-6.711 6.747 0 3.726 3.005 6.747 6.711 6.747Z" fill="#8BB956"/><path d="M302.216 14.52c3.706 0 6.71-3.02 6.71-6.746 0-3.726-3.004-6.747-6.71-6.747-3.707 0-6.711 3.02-6.711 6.747 0 3.726 3.004 6.747 6.711 6.747Z" fill="#8BB956"/><path d="m305.6 11.868-9.579 9.63c0-2.307.918-4.556 2.581-6.17l3.843-3.864h-1.491l-7.973 8.016a2.48 2.48 0 0 1 0-3.518l4.073-4.094-1.033-1.038-2.122 2.134a1.62 1.62 0 0 1-2.294 0l-2.123-2.134-.86.865 1.319 1.326a2.83 2.83 0 0 1 0 3.979l-4.474-4.498-2.237-.576 1.434 1.21 4.818 4.844a7.266 7.266 0 0 1 2.123 5.132v27.275h4.072V25.823c0-1.5.574-2.884 1.606-3.98l9.865-9.975H305.6Z" fill="#8BB956"/><path d="m296.136 12.79.86-.864-1.032-1.038-1.262 1.268c.459.173.918.404 1.434.635Zm11.013-.922H305.6l-.917.923c.344.173.745.346 1.089.403l1.377-1.326Zm-20.878 1.557-.918-.923-2.237-.576 1.262 1.038c.631.173 1.262.346 1.893.46Zm3.097-2.595-.86.865 1.319 1.326.229.23c.459-.114.918-.23 1.32-.403l-2.008-2.018Zm10.554 2.653h.459l2.007-2.019h-1.491l-2.007 2.019h1.032Z" fill="#8BB956"/><path d="M311.508.797c.287-.75.402-1.615.402-2.48 0-4.21-3.384-7.669-7.629-7.669-.287 0-.631 0-.918.058-1.032-1.846-3.04-3.114-5.277-3.114a5.9 5.9 0 0 0-3.957 1.5c-1.549-1.212-3.442-1.904-5.564-1.904-4.99 0-9.062 4.094-9.062 9.11 0 .462.057.924.114 1.385v.058c-.344-.058-.631-.116-.975-.116-2.409 0-4.359 1.96-4.359 4.383 0 2.133 1.549 3.92 3.556 4.324a4.37 4.37 0 0 0-1.032 2.826c0 2.422 1.95 4.382 4.359 4.382 1.205 0 2.294-.461 3.04-1.268 1.09.46 2.352.692 3.614.692a9.745 9.745 0 0 0 6.079-2.134 9.75 9.75 0 0 0 6.08 2.134c1.549 0 3.04-.346 4.359-1.038 1.033.634 2.237 1.038 3.557 1.038 3.613 0 6.596-2.941 6.596-6.632-.058-2.306-1.205-4.324-2.983-5.535Z" fill="#8BB956"/><path d="M277.667 8.87c0-1.096.402-2.134 1.032-2.884-2.064-.403-3.67-2.249-3.67-4.497a4.57 4.57 0 0 1 1.204-3.114c-1.204.807-2.007 2.133-2.007 3.69 0 2.134 1.548 3.921 3.556 4.325a4.371 4.371 0 0 0-1.033 2.825c0 2.422 1.95 4.383 4.359 4.383.345 0 .689-.058.976-.115a4.62 4.62 0 0 1-4.417-4.613Z" fill="#8BB956"/><path d="M46.688 30.32c2.756 0 4.99-2.246 4.99-5.017 0-2.77-2.234-5.016-4.99-5.016-2.756 0-4.99 2.246-4.99 5.017 0 2.77 2.234 5.016 4.99 5.016Z" fill="#E0ECD2"/><path d="M47.147 28.129h-.975v6.631h.975v-6.63Zm298.201-5.882c2.756 0 4.991-2.246 4.991-5.016 0-2.771-2.235-5.017-4.991-5.017-2.755 0-4.99 2.246-4.99 5.017 0 2.77 2.235 5.016 4.99 5.016Z" fill="#E0ECD2"/><path d="M345.807 20.056h-.975v6.631h.975v-6.63Zm11.012-1.73c2.756 0 4.99-2.246 4.99-5.016 0-2.771-2.234-5.017-4.99-5.017-2.756 0-4.99 2.246-4.99 5.017 0 2.77 2.234 5.016 4.99 5.016Z" fill="#E0ECD2"/><path d="M357.335 16.135h-.975v6.631h.975v-6.631ZM36.651 34.241c2.756 0 4.99-2.246 4.99-5.016 0-2.771-2.234-5.017-4.99-5.017-2.756 0-4.99 2.246-4.99 5.017 0 2.77 2.234 5.016 4.99 5.016Z" fill="#E0ECD2"/><path d="M37.167 32.05h-.975v6.631h.975v-6.63Zm86.323 7.67s27.532 7.38 45.829 7.38c46.172 0 58.103-16.78 95.098-16.78v32.753H120.68l2.81-23.354Zm-90.338 1.383-2.294-2.306c-2.753-2.768-7.457-.808-7.457 3.114l-3.04-3.057c-2.695-2.71-7.227-.807-7.227 2.999v3.69c-2.18-2.191-5.85-.634-5.85 2.422v3.172c-3.212 0-5.85 2.652-5.85 5.881v8.88s21.222.173 21.451 0c.115-.23 10.267-24.795 10.267-24.795Zm34.873-20.47c-2.868 0-3.155 19.317-3.155 19.317h6.252s-.23-19.317-3.097-19.317Z" fill="#E0ECD2"/><path d="M63.15 15.79c-2.868 0-3.155 19.316-3.155 19.316h6.252s-.23-19.317-3.097-19.317Z" fill="#E0ECD2"/><path d="M.114 89.829V59.786s26.5-29.466 67.969-29.466c63.724 0 56.956 27.333 159.052 27.333 83.455 0 132.553-22.258 132.553-22.258l.114 95.547H.114" fill="#8BB956"/><path d="m358.254 22.766 6.825-6.862c1.205-1.21 3.212-.346 3.212 1.327 0-4.094 4.876-6.113 7.744-3.23l.057.058c0-2.94 2.352-5.305 5.277-5.305h.459v14.07l-23.574-.058Z" fill="#E0ECD2"/><path d="m91.887 44.678 9.177 9.226a9.724 9.724 0 0 1 2.81 6.805v29.58h2.524V62.036c0-1.903.746-3.806 2.122-5.132l9.464-9.514h-1.778l-8.489 8.534v-.577c0-1.384.574-2.71 1.549-3.748l3.384-3.402h-1.95l-4.359 4.382-3.556-3.575h-1.148l1.664 1.672c1.376 1.384 2.179 3.345 2.179 5.305L93.263 43.698l-1.376.98Z" fill="#048848"/><path d="M123.548 35.798c1.548-.98 2.524-2.71 2.524-4.728 0-3.114-2.524-5.593-5.564-5.593-2.122 0-3.9 1.153-4.876 2.883-2.294-2.25-5.448-3.69-8.89-3.69-.688 0-1.376.057-2.065.172-1.434-1.441-3.441-2.364-5.62-2.364-4.36 0-7.916 3.575-7.916 7.957 0 .52.057 1.038.172 1.557h-.172c-4.36 0-7.915 3.576-7.915 7.958s3.556 7.957 7.915 7.957c2.237 0 4.302-.922 5.736-2.48 2.351 2.942 5.907 4.787 9.922 4.787 2.524 0 4.933-.75 6.883-2.076a7.815 7.815 0 0 0 4.704 1.557c4.359 0 7.915-3.575 7.915-7.958a8.288 8.288 0 0 0-2.753-5.939Z" fill="#048848"/><path d="M108.693 36.26c4.846 0 8.775-3.95 8.775-8.823s-3.929-8.822-8.775-8.822c-4.847 0-8.776 3.95-8.776 8.822 0 4.872 3.929 8.823 8.776 8.823Zm14.281 34.482-6.998-7.035c-3.155-3.171-8.489-.922-8.489 3.518l-2.696-2.71c-3.097-3.114-7.284-4.844-11.7-4.844h-3.729l-3.04-3.056C81.62 51.886 73.59 55.23 73.59 61.92v6.17l-2.524-2.538c-3.613-3.632-9.75-1.038-9.75 4.094v2.71h-3.212c-3.27 0-5.966 2.653-5.966 5.998v.172c-4.072 0-7.399 3.345-7.399 7.44v2.767l78.236-17.991Zm152.57-56.048c-4.474 0-4.875 30.042-4.875 30.042h9.751s-.402-30.042-4.876-30.042Z" fill="#048848"/><path d="M267.4 25.995c-4.474 0-4.876 30.043-4.876 30.043h9.751s-.401-30.042-4.875-30.042Zm-138.231 16.55c-4.933 0-5.392 33.156-5.392 33.156h10.784c0 .058-.459-33.156-5.392-33.156Z" fill="#048848"/><path d="M136.396 52.982c-3.155 0-3.442 21.278-3.442 21.278h6.94c0 .057-.286-21.278-3.498-21.278Zm131.291-10.956 12.503-12.57a9.658 9.658 0 0 1 13.709 0c0-6.69 8.03-10.034 12.733-5.306l1.893 1.903 3.843-3.863c1.721-1.73 4.646-.52 4.646 1.96 3.9 0 7.055 3.172 7.055 7.093v2.537l-56.382 8.246Z" fill="#048848"/><path d="m.114 89.829 381.771-73.175v112.847H.115V89.829Z" fill="#03703C"/><path d="M381.885 93.461H.115v37.424h381.77V93.461Z" fill="#10462D"/><path d="M381.885 114.854h-82.308s-135.592 2.48-160.141-21.393h-22.599s-4.703 23.7 40.093 37.424h224.955v-16.031Z" fill="#8FA3AD"/><path d="M89.305 62.9a3.278 3.278 0 0 0 3.27-3.287 3.278 3.278 0 0 0-3.27-3.287 3.278 3.278 0 0 0-3.269 3.287 3.278 3.278 0 0 0 3.27 3.287Z" fill="#048848"/><path d="M382 54.02c-1.835-.865-4.244.461-4.244 2.767v2.134l-.574-.577c-2.294-2.306-6.195-.691-6.195 2.595h-.172c-3.212 0-5.85 2.653-5.85 5.882H382V54.02Z" fill="#03582F"/><path d="M134.133 93.019c9.843-4.021 15.944-7.91 19.5-11.533 3.857-3.93 4.741-7.578 4.095-10.715-.638-3.096-2.744-5.581-4.637-7.271a22.89 22.89 0 0 0-2.54-1.96l-.015-.01 3.872-.762c8.394 3.638 12.764 7.473 14.673 11.114 1.905 3.63 1.406 7.155-.146 10.293-1.56 3.154-4.172 5.883-6.419 7.836a39.352 39.352 0 0 1-2.881 2.275 31.75 31.75 0 0 1-1.073.733h-24.429Z" fill="#CCDFE5" stroke="#CCDFE5"/><path d="M174.423 117.795h-6.022c-1.377 0-2.524 1.153-2.524 2.537a6.564 6.564 0 0 0 3.04 5.536c3.327 2.076 8.776 5.017 13.479 5.017h135.65v-17.703h-131.75l-11.873 4.613Z" fill="#556268"/><path d="m235.968 113.24 21.853 11.936c1.204.634 2.524.98 3.843.98h5.85c2.123 0 4.187.865 5.736 2.364a8.088 8.088 0 0 0 5.736 2.365h39.06v-17.588l-82.078-.057Z" fill="#394145"/><path d="m105.194 94.384-8.145-8.188c-1.95-1.96-5.334-.577-5.334 2.249 0-6.055-7.227-9.053-11.472-4.786l-5.22 5.247v-.865c0-2.018-2.465-3.056-3.9-1.615l-.516.52c-4.072 0-7.341 3.286-7.341 7.38v.462l41.928-.404Z" fill="#10462D"/><path d="M103.13 96.344c2.185 0 3.957-1.78 3.957-3.978 0-2.198-1.772-3.98-3.957-3.98-2.186 0-3.958 1.782-3.958 3.98 0 2.197 1.772 3.978 3.958 3.978Z" fill="#10462D"/><path d="M365.308 69.531v-22.43l-.803.806c-1.95 1.961-2.753 4.787-2.179 7.497l2.982 14.127Z" fill="#03582F"/><path d="m365.309 69.531-5.908-18.106-.458.865c-1.033 2.076-.976 4.613.172 6.631l6.194 10.61Zm0 0-9.407-12.916-.115.807c-.286 1.96.402 3.92 1.893 5.247l7.629 6.862Z" fill="#03582F"/><path d="M16.347 73.049v15.165l-1.893-17.01-3.67-3.691c-.747 6.4-2.066 17.76-2.18 17.933-.115.115-.058-13.32 0-20.124L3.9 60.593v12.052l-.803-12.859L0 56.615v36.789h18.756V75.47l-2.41-2.421Zm86.38 50.628V94.211l1.089 1.096c2.581 2.594 3.671 6.285 2.868 9.86l-3.957 18.51Z" fill="#000"/><path d="m102.727 123.677 7.743-23.758.573 1.154c1.377 2.768 1.32 6.054-.229 8.707l-8.087 13.897Zm0 0 12.389-17.011.172 1.096c.401 2.595-.516 5.189-2.467 6.919l-10.094 8.996Z" fill="#000"/><path d="m102.268 123.792 13.593-9.803-.114.865c-.345 2.019-1.664 3.806-3.557 4.613l-9.922 4.325Zm7.055 4.267 7.399-7.438c3.384-3.402 9.12-.981 9.12 3.805l5.162-5.189c1.664-1.673 4.531-.519 4.531 1.903 5.392 0 9.694 4.382 9.694 9.745v.057h-36.996l1.09-2.883ZM86.61 112.721V95.595l-2.869 15.511 2.868 1.615Z" fill="#000"/><path d="M83.742 111.279V94.153l-2.926 15.512 2.926 1.614Zm59.364 17.933v-14.704l-2.466 13.378 2.466 1.326Z" fill="#000"/><path d="M145.228 130.654V115.95l-2.466 13.32 2.466 1.384Zm-43.189-15.396v-5.939c0-5.19-6.195-7.785-9.866-4.094l-.688.692-1.262-1.269c-1.893-1.903-5.162-.577-5.162 2.133v1.961l-5.506-5.536c-2.524-2.537-6.597-2.537-9.063 0l-3.67 3.691 35.217 8.361Z" fill="#000"/><path d="M154.693 131v-.115c-47.664 0-69.518-37.539-108.062-43.305-24.606-3.69-39.003-.75-46.689 2.306v41.172h154.751V131Z" fill="#000"/><path d="M382 63.822c-4.245-.288-8.719-.23-13.364.462C347.7 67.34 333.59 93.75 307.378 93.75H382V63.822Z" fill="#03582F"/><path d="M186.297 121.889c3.041 0 5.507-8.364 5.507-18.683 0-10.318-2.466-18.683-5.507-18.683-3.041 0-5.506 8.365-5.506 18.683 0 10.319 2.465 18.683 5.506 18.683Z" fill="#000"/><path d="M186.298 84.523h-11.472v37.366h11.472V84.524Zm134.903 46.419c3.548 0 6.424-9.758 6.424-21.796s-2.876-21.797-6.424-21.797c-3.548 0-6.424 9.759-6.424 21.797s2.876 21.796 6.424 21.796Z" fill="#000"/><path d="M321.201 87.349h-13.364v43.593h13.364V87.349Z" fill="#000"/><path d="M307.837 130.942c3.548 0 6.424-9.758 6.424-21.796s-2.876-21.797-6.424-21.797c-3.548 0-6.424 9.759-6.424 21.797s2.876 21.796 6.424 21.796Z" fill="#142328"/><path d="M307.379 126.214c2.629 0 4.76-7.642 4.76-17.068 0-9.427-2.131-17.069-4.76-17.069s-4.761 7.642-4.761 17.069c0 9.426 2.132 17.068 4.761 17.068Z" fill="#141414"/><path d="M222.432 130.942c3.548 0 6.424-9.758 6.424-21.796s-2.876-21.797-6.424-21.797c-3.548 0-6.424 9.759-6.424 21.797s2.876 21.796 6.424 21.796Z" fill="#000"/><path d="M222.433 87.349h-13.365v43.593h13.365V87.349Z" fill="#000"/><path d="m314.204 59.613 8.776 2.825a3.42 3.42 0 0 1 2.237 2.365l.746 2.71 2.466 2.48c1.262 1.268 1.95 2.998 1.95 4.785v3.98c0 .633.115 1.21.344 1.787l4.302 10.667c.287.692.459 1.5.459 2.25v12.455a5.716 5.716 0 0 1-1.032 3.286l-3.729 5.536a5.9 5.9 0 0 1-4.875 2.595H203.333l-23.345-5.19-8.431-4.152V88.56c0-2.422.745-4.786 2.065-6.804 1.433-2.134 3.326-3.806 5.563-5.017l7.227-3.921s7.571-15.915 17.265-25.487c4.531-4.44 10.611-6.92 16.978-6.977l57.013-.635a27.73 27.73 0 0 1 16.691 5.363l19.845 14.531Z" fill="#fff"/><path d="M244.171 102.149h83.225c2.135 0 3.86 1.739 3.86 3.825v2.672h-90.887v-2.672c0-2.095 1.676-3.825 3.802-3.825Zm-41.613 13.622.001.007.218.907-22.568-5.017-1.554-.737.134-.271 20.47 2.211c1.641.208 2.947 1.335 3.299 2.9Z" fill="#CCDFE5" stroke="#CCDFE5"/><path d="M231.495 57.076c.573 1.384 1.95 2.249 3.441 2.249h78.981l-19.501-14.3h-.058c-2.122-1.558-4.646-2.307-7.227-2.307h-58.963a1.869 1.869 0 0 0-1.721 2.652l5.048 11.706Z" fill="#142328"/><path d="M231.494 57.076c.574 1.384 1.95 2.249 3.442 2.249l79.325.23-3.499-2.537-79.268.058Z" fill="#000"/><path d="M188.592 72.472s11.873-5.536 24.663-5.997a4.395 4.395 0 0 0 3.671-2.249l3.843-6.977c1.033-1.903 1.606-3.979 1.606-6.112a7.89 7.89 0 0 0-8.317-7.9c-2.638.173-5.104 1.153-7.112 2.94-4.187 3.806-11.758 11.937-18.354 26.295Z" fill="#142328"/><path d="M214.115 43.237c-.115 0-.287 0-.402.057-1.548 1.269-2.925 2.71-4.301 4.21-2.008 2.249-3.786 4.728-5.335 7.323l-1.089 2.018c-.172.346-.402.635-.517.98l-.516 1.038c-.344.692-.688 1.384-.975 2.076l-.86 2.134-.402 1.038-.344 1.095-.745 2.192c-.115.346-.23.75-.345 1.095l-.172.577a64.864 64.864 0 0 1 4.532-1.153l.401-1.615.229-1.038.287-1.038.631-2.076c.23-.692.459-1.326.746-2.018l.344-1.038c.115-.346.287-.634.401-.98l.861-1.96c1.262-2.596 2.696-5.075 4.416-7.44l.631-.864.689-.865c.458-.577.917-1.096 1.433-1.672a33.327 33.327 0 0 1 2.008-2.019c-.516-.115-1.032-.115-1.606-.057Z" fill="#000"/><path d="M331.756 109.146v-1.211c0-.865-.689-1.557-1.549-1.557h-17.379l-2.926 2.768h21.854Z" fill="#9A3F21"/><path d="M309.845 71.838h-47.836v2.306h47.836v-2.306Z" fill="#A1BDCA"/><path d="M331.755 109.146h-48.811v8.245h42.904c1.95 0 3.785-.98 4.875-2.594l2.581-3.806-1.549-1.845Z" fill="#000"/><path d="M287.59 117.391v-8.245h-47.721l-3.155 3.113v5.132h50.876Z" fill="#000"/><path d="M313.631 90.77h-56.44c-1.787 0-3.527-.543-5.056-1.53l-.511-.353h67.574l-.511.353-.003.002a9.179 9.179 0 0 1-5.053 1.528Z" fill="#CCDFE5" stroke="#CCDFE5"/><mask id="path-84-inside-1_75655_20" fill="#fff"><path d="M235.682 93.461c-1.09 0-2.123 0-3.212-.057L213.025 93v-.404L232.47 93c1.376.058 2.753.058 4.187.058l98.826-1.211v.403l-98.826 1.211h-.975Z"/></mask><path d="M235.682 93.461c-1.09 0-2.123 0-3.212-.057L213.025 93v-.404L232.47 93c1.376.058 2.753.058 4.187.058l98.826-1.211v.403l-98.826 1.211h-.975Z" fill="#CCDFE5"/><path d="m232.47 93.404.052-.999h-.016l-.016-.001-.02 1ZM213.025 93h-1v.98l.98.02.02-1Zm0-.404.021-1-1.021-.02v1.02h1ZM232.47 93l.041-1h-.021l-.02 1Zm4.187.058v1h.012l-.012-1Zm98.826-1.211h1v-1.013l-1.012.013.012 1Zm0 .403.013 1 .987-.012v-.988h-1Zm-98.826 1.211v1h.012l-.012-1Zm-.975-1c-1.094 0-2.1 0-3.16-.056l-.105 1.997c1.12.06 2.178.06 3.265.06v-2Zm-3.192-.057L213.046 92l-.041 2 19.444.403.041-2ZM214.025 93v-.404h-2V93h2Zm-1.02.596 19.444.404.041-2-19.444-.403-.041 2Zm19.423.403c1.401.059 2.798.059 4.229.059v-2c-1.438 0-2.794 0-4.146-.057l-.083 1.998Zm4.241.059 98.827-1.211-.025-2-98.827 1.21.025 2Zm97.814-2.211v.403h2v-.403h-2Zm.988-.597-98.827 1.211.025 2 98.827-1.21-.025-2Zm-98.814 1.211h-.975v2h.975v-2Z" fill="#CCDFE5" mask="url(#path-84-inside-1_75655_20)"/><mask id="path-86-inside-2_75655_20" fill="#fff"><path d="M242.851 67.686h-.401v-2.422l-1.09-1.096a1.103 1.103 0 0 1-.287-1.095c.172-.404.516-.692.975-.692h80.989c.287.057.573.173.803.404h-81.849c-.287 0-.459.173-.516.346-.058.172-.058.46.114.634l1.205 1.21v2.71h.057Z"/></mask><path d="M242.851 67.686h-.401v-2.422l-1.09-1.096a1.103 1.103 0 0 1-.287-1.095c.172-.404.516-.692.975-.692h80.989c.287.057.573.173.803.404h-81.849c-.287 0-.459.173-.516.346-.058.172-.058.46.114.634l1.205 1.21v2.71h.057Z" fill="#CCDFE5"/><path d="M242.45 67.686h-1v1h1v-1Zm0-2.422h1v-.413l-.291-.292-.709.705Zm-1.09-1.096-.709.706.709-.706Zm-.287-1.095-.92-.392-.024.058-.018.06.962.274Zm81.964-.692.197-.98-.098-.02h-.099v1Zm.803.404v1h2.405l-1.696-1.706-.709.706Zm-82.251.98.709-.705-.709.705Zm1.205 1.21h1v-.412l-.291-.293-.709.706Zm0 2.71h-1v1h1v-1Zm.057-1h-.401v2h.401v-2Zm.599 1v-2.421h-2v2.422h2Zm-.291-3.126-1.09-1.096-1.418 1.41 1.09 1.096 1.418-1.41Zm-1.09-1.096a.13.13 0 0 1-.037-.058.111.111 0 0 1 .003-.059l-1.924-.546a2.103 2.103 0 0 0 .54 2.074l1.418-1.41Zm-.076.002a.215.215 0 0 1 .057-.087l-.006.002c-.004.002-.004 0 .004 0v-2c-.944 0-1.601.613-1.895 1.3l1.84.785Zm.055-.084h80.932v-2h-80.932v2Zm80.932 0h.057v-2h-.057v2Zm-.14-.02c.164.033.245.083.291.129l1.418-1.41c-.413-.416-.906-.597-1.315-.68l-.394 1.961Zm1-1.576h-81.849v2h81.849v-2Zm-81.849 0a1.52 1.52 0 0 0-1.465 1.03l1.898.63a.5.5 0 0 1-.175.246.442.442 0 0 1-.258.093v-2Zm-1.465 1.03a1.746 1.746 0 0 0-.072.756c.033.266.141.612.427.899l1.417-1.41a.46.46 0 0 1 .14.264.24.24 0 0 1-.014.121l-1.898-.63Zm.354 1.655 1.205 1.21 1.418-1.41-1.205-1.21-1.418 1.41Zm.914.506v2.71h2v-2.71h-2Zm1 3.71h.057v-2h-.057v2Z" fill="#CCDFE5" mask="url(#path-86-inside-2_75655_20)"/><mask id="path-88-inside-3_75655_20" fill="#fff"><path d="M325.389 65.38h-82.767v-.404h82.652l.115.403Z"/></mask><path d="M325.389 65.38h-82.767v-.404h82.652l.115.403Z" fill="#CCDFE5"/><path d="M325.389 65.38v1h1.324l-.362-1.274-.962.273Zm-82.767 0h-1v1h1v-1Zm0-.404v-1h-1v1h1Zm82.652 0 .962-.274-.207-.726h-.755v1Zm.115-.597h-82.767v2h82.767v-2Zm-81.767 1v-.403h-2v.403h2Zm-1 .597h82.652v-2h-82.652v2Zm81.69-.727.115.404 1.924-.547-.115-.404-1.924.547Z" fill="#CCDFE5" mask="url(#path-88-inside-3_75655_20)"/><path d="M324.758 67.974V65.15" stroke="#CCDFE5" stroke-miterlimit="10"/><path d="M330.723 80.487a4.73 4.73 0 0 1-.344-1.787v-3.98c0-1.787-.688-3.517-1.95-4.785l-2.467-2.48-.172-.692h-.975l-5.047 5.075h-9.866v4.497c0 .75.115 1.5.459 2.192a5.065 5.065 0 0 0 4.646 2.998h15.142c.402 0 .803-.519.574-1.038Z" fill="#FF6937"/><mask id="path-92-inside-4_75655_20" fill="#fff"><path d="m175.744 84.062-.115-.403 23.115-8.189c7.342-2.537 15.028-3.805 22.828-3.805h6.654v.403h-6.654a69.307 69.307 0 0 0-22.713 3.806l-23.115 8.188Z"/></mask><path d="m175.744 84.062-.115-.403 23.115-8.189c7.342-2.537 15.028-3.805 22.828-3.805h6.654v.403h-6.654a69.307 69.307 0 0 0-22.713 3.806l-23.115 8.188Z" fill="#CCDFE5"/><path d="m175.744 84.062-.962.274.291 1.025 1.005-.356-.334-.943Zm-.115-.403-.334-.943-.885.313.257.903.962-.273Zm23.115-8.189-.327-.945-.007.003.334.942Zm29.482-3.805h1v-1h-1v1Zm0 .403v1h1v-1h-1Zm-29.367 3.806-.327-.945-.007.002.334.943Zm-22.153 7.915-.115-.404-1.924.547.115.404 1.924-.547Zm-.743.812 23.115-8.188-.668-1.885-23.115 8.188.668 1.885Zm23.108-8.185c7.234-2.5 14.81-3.751 22.501-3.751v-2c-7.909 0-15.706 1.286-23.155 3.86l.654 1.89Zm22.501-3.751h6.654v-2h-6.654v2Zm5.654-1v.403h2v-.403h-2Zm1-.597h-6.654v2h6.654v-2Zm-6.654 0a70.312 70.312 0 0 0-23.04 3.86l.653 1.891a68.31 68.31 0 0 1 22.387-3.75v-2Zm-23.047 3.863L175.41 83.12l.668 1.885 23.115-8.188-.668-1.886Z" fill="#CCDFE5" mask="url(#path-92-inside-4_75655_20)"/><path d="m242.852 66.763 5.047 5.075h14.11v4.555c0 1.326-.516 2.653-1.491 3.575-.975.98-2.237 1.5-3.556 1.5h-24.377c-1.09 0-2.123-.404-2.868-1.212l-2.581-2.594a2.976 2.976 0 0 1-.861-2.076v-2.999c0-.75.287-1.499.861-2.076a13.283 13.283 0 0 1 9.464-3.92l6.252.172Z" fill="#FF6937"/><path d="M231.61 77.72a2.972 2.972 0 0 1-.861-2.077v-2.998c0-.75.287-1.5.861-2.076 2.294-2.306 4.072-3.69 7.284-3.863l-2.294-.058a12.957 12.957 0 0 0-9.464 3.921 2.976 2.976 0 0 0-.861 2.076v2.998c0 .75.287 1.5.861 2.076l2.581 2.595a4.071 4.071 0 0 0 2.868 1.211h4.474c-1.09 0-2.123-.404-2.868-1.21l-2.581-2.596Z" fill="#C14F29"/><mask id="path-96-inside-5_75655_20" fill="#fff"><path d="m176.174 107.732-.011.865 31.658.39.011-.865-31.658-.39Z"/></mask><path d="m176.174 107.732-.011.865 31.658.39.011-.865-31.658-.39Z" fill="#CCDFE5"/><path d="m176.163 108.597-1-.013-.012 1 1 .012.012-.999Zm.011-.865.012-1-1-.013-.012 1 1 .013Zm31.658.39 1 .012.012-1-1-.012-.012 1Zm-.011.865-.012 1 1 .012.012-1-1-.012Zm-30.658-.378.011-.865-2-.025-.011.865 2 .025Zm-1.002.123 31.659.39.024-2-31.658-.39-.025 2Zm30.671-.622-.011.864 2 .025.011-.865-2-.024Zm1.001-.123-31.658-.39-.024 1.999 31.658.391.024-2Z" fill="#CCDFE5" mask="url(#path-96-inside-5_75655_20)"/><path d="M209.527 129.443c3.833 0 6.94-9.759 6.94-21.797 0-12.037-3.107-21.796-6.94-21.796s-6.94 9.759-6.94 21.796c0 12.038 3.107 21.797 6.94 21.797Z" fill="#000"/><path d="M209.069 130.942c3.547 0 6.424-9.758 6.424-21.796s-2.877-21.797-6.424-21.797c-3.548 0-6.424 9.759-6.424 21.797s2.876 21.796 6.424 21.796Z" fill="#142328"/><path d="M208.609 126.214c2.63 0 4.761-7.642 4.761-17.068 0-9.427-2.131-17.069-4.761-17.069-2.629 0-4.76 7.642-4.76 17.069 0 9.426 2.131 17.068 4.76 17.068Z" fill="#6C7C83"/><path d="M208.609 123.331c1.837 0 3.327-6.351 3.327-14.185 0-7.835-1.49-14.186-3.327-14.186s-3.327 6.351-3.327 14.186c0 7.834 1.49 14.185 3.327 14.185Z" fill="#556268"/><path d="M175.629 120.217c3.295 0 5.965-8.365 5.965-18.683s-2.67-18.683-5.965-18.683c-3.294 0-5.965 8.365-5.965 18.683s2.671 18.683 5.965 18.683Z" fill="#000"/><path d="M174.826 121.889c3.041 0 5.506-8.364 5.506-18.683 0-10.318-2.465-18.683-5.506-18.683-3.041 0-5.507 8.365-5.507 18.683 0 10.319 2.466 18.683 5.507 18.683Z" fill="#142328"/><path d="M174.424 117.853c2.249 0 4.072-6.558 4.072-14.647s-1.823-14.646-4.072-14.646-4.072 6.557-4.072 14.646 1.823 14.647 4.072 14.647Z" fill="#6C7C83"/><path d="M295.907 81.525h-18.469a2.76 2.76 0 0 1-2.753-2.768v-4.613h23.918v4.613c0 1.557-1.205 2.768-2.696 2.768Z" fill="#FFC043"/><path d="M298.603 71.838h-23.918v2.306h23.918v-2.306Z" fill="#556268"/><path d="M189.279 70.569h-11.184c-1.319 0-2.639-.519-3.556-1.5a2.536 2.536 0 0 1-.746-1.787c0-.692.287-1.326.746-1.787l2.237-2.25c.63-.633 1.433-.98 2.294-.98h5.564c1.548 0 2.753 1.27 2.753 2.768v3.23h2.925l-1.033 2.306Z" fill="#fff"/><path d="M185.724 70.569h-4.933c-1.319 0-2.638-.519-3.556-1.5a2.536 2.536 0 0 1-.746-1.787c0-.692.287-1.326.746-1.787l2.237-2.25c.631-.633 1.434-.98 2.294-.98h3.671c1.549 0 2.753 1.27 2.753 2.768v3.23c-.115 1.326-1.147 2.306-2.466 2.306Z" fill="#142328"/><path d="M180.848 69.992c-1.204 0-2.294-.46-3.154-1.326a2.02 2.02 0 0 1-.574-1.384c0-.519.23-.98.574-1.384l2.237-2.248c.516-.52 1.147-.808 1.892-.808h3.671c1.205 0 2.18.98 2.18 2.191v3.172c-.115.98-.918 1.73-1.893 1.73h-4.933v.057Z" fill="#556268"/><path d="M259.198 52.924h-17.207c-.86 0-1.549.692-1.606 1.5l-.23 3.113c-.057.923.689 1.73 1.606 1.73h19.502c1.319 0 2.065-1.442 1.319-2.537l-2.065-3.114c-.229-.404-.745-.692-1.319-.692Zm36.193 0h-13.995c-.574 0-1.033.461-1.09.98l-.287 4.21c-.057.634.459 1.153 1.09 1.153h19.903c1.032 0 1.491-1.326.631-1.96l-5.621-4.21c-.172-.058-.402-.173-.631-.173Z" fill="#000"/><path d="M185.667 62.9c-1.205 1.153-2.409 2.94-4.417 7.092h4.474c.975 0 1.778-.75 1.893-1.73v-3.171c.057-1.153-.803-2.076-1.95-2.191Z" fill="#6C7C83"/><mask id="path-113-inside-6_75655_20" fill="#fff"><path d="M255.47 88.964h-7.972a4.285 4.285 0 0 1-3.04-1.269l-.975-.98a4.332 4.332 0 0 1-1.262-3.056v-3.403h.573v3.403c0 .98.402 1.96 1.09 2.652l.975.98a3.772 3.772 0 0 0 2.639 1.096h7.972v.577Z"/></mask><path d="M255.47 88.964h-7.972a4.285 4.285 0 0 1-3.04-1.269l-.975-.98a4.332 4.332 0 0 1-1.262-3.056v-3.403h.573v3.403c0 .98.402 1.96 1.09 2.652l.975.98a3.772 3.772 0 0 0 2.639 1.096h7.972v.577Z" fill="#CCDFE5"/><path d="M255.47 88.964v1h1v-1h-1Zm-11.012-1.269.709-.705-.709.705Zm-.975-.98-.709.705.709-.705Zm-1.262-6.459v-1h-1v1h1Zm.573 0h1v-1h-1v1Zm1.09 6.055.709-.705-.709.705Zm.975.98-.709.706.709-.706Zm10.611 1.096h1v-1h-1v1Zm0-.423h-7.972v2h7.972v-2Zm-7.972 0a3.285 3.285 0 0 1-2.331-.974l-1.418 1.41a5.285 5.285 0 0 0 3.749 1.564v-2Zm-2.331-.974-.975-.98-1.418 1.41.975.98 1.418-1.41Zm-.975-.98a3.329 3.329 0 0 1-.971-2.351h-2c0 1.42.565 2.768 1.553 3.76l1.418-1.41Zm-.971-2.351v-3.403h-2v3.403h2Zm-1-2.403h.573v-2h-.573v2Zm-.427-1v3.403h2v-3.403h-2Zm0 3.403c0 1.241.505 2.476 1.381 3.357l1.418-1.41a2.814 2.814 0 0 1-.799-1.947h-2Zm1.381 3.357.975.98 1.418-1.41-.975-.98-1.418 1.41Zm.975.98a4.773 4.773 0 0 0 3.348 1.391v-2c-.71 0-1.43-.298-1.93-.8l-1.418 1.41Zm3.348 1.391h7.972v-2h-7.972v2Zm6.972-1v.577h2v-.577h-2Z" fill="#CCDFE5" mask="url(#path-113-inside-6_75655_20)"/><mask id="path-115-inside-7_75655_20" fill="#fff"><path d="M311.795 88.964h7.973a4.286 4.286 0 0 0 3.04-1.269l.975-.98a4.331 4.331 0 0 0 1.261-3.056v-3.403h-.573v3.403c0 .98-.402 1.96-1.09 2.652l-.975.98a3.771 3.771 0 0 1-2.638 1.096h-7.973v.577Z"/></mask><path d="M311.795 88.964h7.973a4.286 4.286 0 0 0 3.04-1.269l.975-.98a4.331 4.331 0 0 0 1.261-3.056v-3.403h-.573v3.403c0 .98-.402 1.96-1.09 2.652l-.975.98a3.771 3.771 0 0 1-2.638 1.096h-7.973v.577Z" fill="#CCDFE5"/><path d="M311.795 88.964h-1v1h1v-1Zm11.013-1.269-.709-.705.709.705Zm.975-.98.709.705-.709-.705Zm1.261-6.459h1v-1h-1v1Zm-.573 0v-1h-1v1h1Zm-1.09 6.055.709.705-.709-.705Zm-.975.98-.709-.705.709.705Zm-10.611 1.096v-1h-1v1h1Zm0 1.577h7.973v-2h-7.973v2Zm7.973 0c1.417 0 2.761-.57 3.749-1.564l-1.418-1.41a3.287 3.287 0 0 1-2.331.974v2Zm3.749-1.564.975-.98-1.418-1.41-.975.98 1.418 1.41Zm.975-.98a5.335 5.335 0 0 0 1.552-3.761h-2a3.33 3.33 0 0 1-.97 2.35l1.418 1.411Zm1.552-3.761v-3.403h-2v3.403h2Zm-1-4.403h-.573v2h.573v-2Zm-1.573 1v3.403h2v-3.403h-2Zm0 3.403c0 .718-.299 1.444-.799 1.947l1.418 1.41a4.811 4.811 0 0 0 1.381-3.357h-2Zm-.799 1.947-.975.98 1.418 1.41.975-.98-1.418-1.41Zm-.975.98a2.77 2.77 0 0 1-1.929.801v2c1.24 0 2.47-.509 3.347-1.39l-1.418-1.41Zm-1.929.801h-7.973v2h7.973v-2Zm-8.973 1v.577h2v-.577h-2Z" fill="#CCDFE5" mask="url(#path-115-inside-7_75655_20)"/><path d="M242.852 66.763h-1.262v14.762h1.262V66.763Zm82.594 0h-.975v14.762h.975V66.763Z" fill="#C14F29"/><path d="m313.803 59.325-19.444-14.243h-.058c-2.122-1.557-4.646-2.307-7.227-2.307h-55.636s45.369 2.192 59.651 16.55h22.714Z" fill="#6C7C83"/><path d="m301.7 57.364-5.621-4.21c-.172-.115-.401-.23-.631-.23h-13.995c3.9 1.788 7.227 3.921 9.694 6.343h9.922c1.033.058 1.434-1.269.631-1.903Z" fill="#142328"/><path d="m291.203 59.498 23.001.057-1.32-.98-2.179-1.557H288.45c.975.75 1.95 1.73 2.753 2.48Z" fill="#142328"/><path d="M239.869 109.146v-1.211c0-.865.688-1.557 1.549-1.557h20.763l3.442 2.768h-25.754Z" fill="#9A3F21"/><path d="M236.214 112.793v4.098h-19.56l.171-2.835 19.389-1.263Z" fill="#CCDFE5" stroke="#CCDFE5"/><path d="M174.425 115.546c1.679 0 3.04-5.524 3.04-12.34 0-6.815-1.361-12.34-3.04-12.34s-3.04 5.525-3.04 12.34c0 6.816 1.361 12.34 3.04 12.34Z" fill="#556268"/><path d="M110.298 94.788V84.524l-1.95 9.975 1.95.289Z" fill="#10462D"/><path d="M108.405 94.442v-7.554l-1.491 7.323 1.491.23Z" fill="#10462D"/></g></svg>